# xmcd
#
# Track frame offsets:
#   150
#   18998
#   33039
#   47324
#   68533
#   84056
#   97687
#   111229
#   130417
#   142982
#   159713
#   173989
#   189793
#   208808
#   225365
#   247178
#   264457
#   277439
#
# Disc length: 3908 seconds
#
# Revision: 0
# Processed by: cddbd v1.5.2PL0 Copyright (c) Steve Scherf et al.
# Submitted via: Click'N Design 3D 5.1
#
DISCID=e80f4212
DTITLE=Many Directions - Bob Gordon
DYEAR=2008
DGENRE=Country/Rock
TTITLE0=01. Already Gone
TTITLE1=02. Call Me Lonesome
TTITLE2=03. Everybody's Talkin"
TTITLE3=04. Get You Outa My Heart
TTITLE4=05. Always On My Mind
TTITLE5=06. Ad-Hoc Blues
TTITLE6=07. Six Pack To Go
TTITLE7=08. Blue Eyes Cryin'
TTITLE8=09. Hound Dog
TTITLE9=10. All My Friends
TTITLE10=11. 9 Lb. Hammer
TTITLE11=12. Talk Back Tremblin' Lips
TTITLE12=13. Candle Glow
TTITLE13=14. Break My Mind
TTITLE14=15. Peacefyk Easy Feeling
TTITLE15=16. Early Morning Rain
TTITLE16=17. Abilene
TTITLE17=18. Satisfied Mind
EXTD=
EXTT0=
EXTT1=
EXTT2=
EXTT3=
EXTT4=
EXTT5=
EXTT6=
EXTT7=
EXTT8=
EXTT9=
EXTT10=
EXTT11=
EXTT12=
EXTT13=
EXTT14=
EXTT15=
EXTT16=
EXTT17=
PLAYORDER=
